# xmcd
#
# Track frame offsets:
#	150
#	21768
#	37830
#	67391
#
# Disc length: 1943 seconds
#
# Revision: 1
# Processed by: cddbd v1.5.2PL0 Copyright (c) Steve Scherf et al.
# Submitted via: audiograbber 1.83.01
#
DISCID=2f079504
DTITLE=Chris Cornell - Part Of Me [Produced by Timbaland]
DYEAR=2009
DGENRE=Dance
TTITLE0=Part Of Me [Single Version]
TTITLE1=Part Of Me [Edited Version]
TTITLE2=Part Of Me [LMFAO Remix]
TTITLE3=Daten-CD
EXTD=
EXTT0=
EXTT1=
EXTT2=
EXTT3=
PLAYORDER=
